<?xml version="1.0" encoding="UTF-8"?>
<svg id="Layer_2" data-name="Layer 2" xmlns="http://www.w3.org/2000/svg" viewBox="0 0 101.79 186.15">
  <defs>
    <style>
      .cls-1 {
        opacity: .11;
      }

      .cls-2 {
        opacity: .1;
      }

      .cls-3 {
        fill: #676b6a;
      }

      .cls-4 {
        fill: #fff;
      }

      .cls-5 {
        fill: #ff9248;
      }

      .cls-6 {
        fill: #ff6f03;
      }

      .cls-7 {
        fill: #ff822e;
      }

      .cls-8 {
        fill: #bc3a00;
      }

      .cls-9 {
        fill: #d8ff7a;
      }

      .cls-10 {
        fill: #e24b00;
      }

      .cls-11 {
        fill: #a2a8a5;
      }

      .cls-12 {
        fill: #878c8a;
      }

      .cls-13 {
        opacity: .4;
      }

      .cls-14 {
        opacity: .72;
      }
    </style>
  </defs>
  <g id="Layer_1-2" data-name="Layer 1">
    <g class="cls-14">
      <g>
        <path class="cls-6" d="m101.79,0H0v186.15h101.79V0Z"/>
        <polygon class="cls-10" points="94.01 5.76 94.01 186.15 93.29 186.15 93.29 6.34 8.09 6.34 8.09 186.15 7.38 186.15 7.38 5.76 94.01 5.76"/>
        <polygon class="cls-10" points="90.73 8.58 90.73 186.15 90.07 186.15 90.07 9.14 11.32 9.14 11.32 186.15 10.66 186.15 10.66 8.58 90.73 8.58"/>
        <g>
          <path class="cls-7" d="m24.69,100.09l3.55,3.74h45.55l3.55-3.74H24.69Z"/>
          <path class="cls-10" d="m77.34,173.64l-3.55-3.74H28.24l-3.55,3.74h52.66Z"/>
          <path class="cls-10" d="m24.69,100.09l3.55,3.74v66.06l-3.55,3.74v-73.55Z"/>
          <path class="cls-7" d="m77.34,173.64l-3.55-3.74v-66.06l3.55-3.74v73.55Z"/>
          <rect class="cls-5" x="28.24" y="103.83" width="45.55" height="66.06"/>
        </g>
        <g>
          <path class="cls-7" d="m24.69,21.89l3.56,2.82h45.71l3.56-2.82H24.69Z"/>
          <path class="cls-10" d="m77.34,89.94l-3.39-2.7H28.25l-3.56,2.82,52.66-.12Z"/>
          <path class="cls-10" d="m24.69,21.89l3.56,2.82v62.53l-3.56,2.82V21.89Z"/>
          <path class="cls-7" d="m77.34,89.94l-3.39-2.7V24.71s3.56-2.82,3.56-2.82l-.17,68.05Z"/>
          <rect class="cls-5" x="28.25" y="24.71" width="45.71" height="62.53"/>
        </g>
      </g>
      <g>
        <path class="cls-8" d="m32.68,93.81h-15.11c-.11,0-.21.09-.21.21v2.01c0,.11.09.21.21.21h15.11c.11,0,.21-.09.21-.21v-2.01c0-.11-.09-.21-.21-.21Z"/>
        <path class="cls-8" d="m13.96,107.27c0,2.4,1.96,4.36,4.36,4.36s4.36-1.96,4.36-4.36v-12.91c0-2.4-1.96-4.36-4.36-4.36s-4.36,1.96-4.36,4.36v12.91Z"/>
        <path class="cls-11" d="m13.31,106.99c0,2.4,1.96,4.36,4.36,4.36s4.36-1.96,4.36-4.36v-12.91c0-2.4-1.96-4.36-4.36-4.36s-4.36,1.96-4.36,4.36v12.91Z"/>
        <g class="cls-2">
          <path class="cls-4" d="m13.31,101.28v4.2l5.75,5.63c.99-.34,1.82-1.02,2.35-1.9l-8.11-7.93Z"/>
        </g>
        <g class="cls-13">
          <path class="cls-4" d="m17.67,89.88c-2.29,0-4.15,1.86-4.15,4.15v12.91c0,2.29,1.86,4.15,4.15,4.15s4.15-1.86,4.15-4.15v-12.91c0-2.29-1.86-4.15-4.15-4.15Zm4.01,17.06c0,2.21-1.8,4.01-4.01,4.01s-4.01-1.8-4.01-4.01v-12.91c0-2.21,1.8-4.01,4.01-4.01s4.01,1.8,4.01,4.01v12.91Z"/>
        </g>
        <path class="cls-3" d="m17.67,89.93c-2.29,0-4.15,1.86-4.15,4.15v12.91c0,2.29,1.86,4.15,4.15,4.15s4.15-1.86,4.15-4.15v-12.91c0-2.29-1.86-4.15-4.15-4.15Zm4.01,17.06c0,2.21-1.8,4.01-4.01,4.01s-4.01-1.8-4.01-4.01v-12.91c0-2.21,1.8-4.01,4.01-4.01s4.01,1.8,4.01,4.01v12.91Z"/>
        <g class="cls-13">
          <path class="cls-4" d="m17.67,97.6c1.99,0,3.6-1.61,3.6-3.6s-1.61-3.6-3.6-3.6-3.6,1.61-3.6,3.6,1.61,3.6,3.6,3.6Z"/>
        </g>
        <path class="cls-3" d="m17.67,97.68c1.99,0,3.6-1.61,3.6-3.6s-1.61-3.6-3.6-3.6-3.6,1.61-3.6,3.6,1.61,3.6,3.6,3.6Z"/>
        <g class="cls-13">
          <path class="cls-3" d="m17.67,97.44c-1.95,0-3.53-1.55-3.6-3.48,0,.04,0,.08,0,.12,0,1.99,1.61,3.6,3.6,3.6s3.6-1.61,3.6-3.6c0-.04,0-.08,0-.12-.06,1.93-1.65,3.48-3.6,3.48Z"/>
        </g>
        <g class="cls-13">
          <path class="cls-12" d="m16.43,95.21l5.6,5.48v-6.61h-5.5l-.1,1.13Z"/>
        </g>
        <g class="cls-13">
          <path class="cls-4" d="m18.68,105.55c0-.55-.45-1-1-1s-1,.45-1,1c0,.38.21.71.53.88v1.33h.95v-1.33c.31-.17.53-.5.53-.88h0Z"/>
        </g>
        <path class="cls-3" d="m18.68,105.62c0-.55-.45-1-1-1s-1,.45-1,1c0,.38.21.71.53.88v1.33h.95v-1.33c.31-.17.53-.5.53-.88h0Z"/>
        <path class="cls-3" d="m18.68,105.62c0-.55-.45-1-1-1s-1,.45-1,1c0,.38.21.71.53.88v1.33h.95v-1.33c.31-.17.53-.5.53-.88h0Z"/>
        <g class="cls-13">
          <path class="cls-4" d="m17.2,106.55c-.31-.17-.53-.5-.53-.88,0-.1.01-.19.04-.28.08.26.25.48.49.61v.55Zm0,1.33h.95v-.55h-.95v.55Zm.95-1.88v.55c.31-.17.53-.5.53-.88,0-.1-.01-.19-.04-.28-.08.26-.25.48-.49.61Z"/>
        </g>
        <path class="cls-3" d="m17.2,106.51c-.31-.17-.53-.5-.53-.88,0-.1.01-.19.04-.28.08.26.25.48.49.61v.55Zm0,1.33h.95v-.55h-.95v.55Zm.95-1.88v.55c.31-.17.53-.5.53-.88,0-.1-.01-.19-.04-.28-.08.26-.25.48-.49.61Z"/>
        <g class="cls-1">
          <path class="cls-9" d="m25.63,93.81h-6.89c.25.3.39.68.39,1.1,0,.88-.66,1.61-1.52,1.71l8.02,6.12v-8.92h0Z"/>
        </g>
        <path class="cls-12" d="m31.71,92.87h-15.11c-.11,0-.21.09-.21.21v2.01c0,.11.09.21.21.21h15.11c.11,0,.21-.09.21-.21v-2.01c0-.11-.09-.21-.21-.21Z"/>
        <g class="cls-13">
          <path class="cls-4" d="m31.71,92.87h-15.11c-.11,0-.21.09-.21.21v.21c0-.11.09-.21.21-.21h15.11c.11,0,.21.09.21.21v-.21c0-.11-.09-.21-.21-.21Z"/>
        </g>
      </g>
    </g>
  </g>
</svg>