<svg width="94" height="60" viewBox="0 0 94 60" fill="none" xmlns="http://www.w3.org/2000/svg">
<g clip-path="url(#clip0_449_846)">
<path d="M55.6675 13.4593H49.332V0.137695H55.6675V2.26828H51.4631V11.3299H53.5352V9.30928H55.6675V13.4605V13.4593Z" fill="white"/>
<path d="M63.188 11.3288V13.4593H56.8525V0.137695H58.9848V11.3299H63.1891L63.188 11.3288Z" fill="white"/>
<path d="M64.3027 13.4593V0.137695H70.6382V13.4593H64.3027ZM66.4338 11.3288H68.5059V2.26712H66.4338V11.3288Z" fill="white"/>
<path d="M72.087 13.4593V9.30812H74.2181V11.3288H76.2902V7.17754H72.0859V0.137695H78.4213V2.26828H74.217V5.04927H78.4213V13.4605H72.0859L72.087 13.4593Z" fill="white"/>
<path d="M86.1792 13.4593H79.8438V0.137695H86.1792V2.26828H81.9749V5.04927H86.1792V7.17869H81.9749V11.3299H86.1792V13.4605V13.4593Z" fill="white"/>
<path d="M93.9057 0.137695V13.4593H93.3035H91.7746H87.5703V0.137695H93.9057ZM89.7014 11.3299H91.7735V2.26712H89.7014V11.3288V11.3299Z" fill="white"/>
<path d="M27.2388 4.57373V13.5972H24.9502V4.57373H27.2388Z" fill="#D8FF7A"/>
<path d="M44.1782 13.5971H41.8895H37.376V0H44.1782M44.1782 0V13.5971V0ZM39.6634 11.3103H41.8884V2.28682H39.6634V11.3103Z" fill="#D8FF7A"/>
<path d="M35.9148 0V13.5959H33.6111L31.0561 6.66835V13.5959H28.7559V0H31.0561V0.0462919L31.0642 0.0439773L33.6122 6.95304V0H35.9148Z" fill="#D8FF7A"/>
<path d="M26.2786 3.62466C27.2803 3.62466 28.0924 2.81325 28.0924 1.81233C28.0924 0.811407 27.2803 0 26.2786 0C25.2769 0 24.4648 0.811407 24.4648 1.81233C24.4648 2.81325 25.2769 3.62466 26.2786 3.62466Z" fill="#D8FF7A"/>
<path d="M-0.000976562 13.5971V0H6.80121V13.5971H-0.000976562ZM2.28765 5.27265H4.51258V2.28682H2.28765V5.27265ZM2.28765 11.3103H4.51258V7.55947H2.28765V11.3103Z" fill="#D8FF7A"/>
<path d="M15.1616 13.5971H8.35938V0H15.1616V2.28682H10.648V5.27265H15.1616V7.55947H10.648V11.3103H15.1616V13.5971Z" fill="#D8FF7A"/>
<path d="M21.1679 7.55947H18.9429V13.5971H16.6543V0H18.9429V5.27265H21.1679V0H23.4565V13.5971H21.1679V7.55947Z" fill="#D8FF7A"/>
<path d="M15.8853 59.9028H10.5402L-0.000732422 59.904V16.3479H15.8853M15.8853 16.3479V59.904V16.3479ZM5.34326 54.563H10.539V21.6888H5.34326V54.563Z" fill="white"/>
<path d="M78.1516 59.904V42.6348H83.4956V54.563H88.6925V34.0002H78.1516V16.3479H94.0377V21.6888H83.4956V28.6604H94.0377V59.9028H78.1516V59.904Z" fill="white"/>
<path d="M54.9986 59.904V16.3479L39.1125 21.6888V54.563L54.9986 59.904Z" fill="#FFB400"/>
<path d="M43.6954 38.2057C43.6873 40.1117 40.7859 40.1117 40.7767 38.2057C40.7848 36.2996 43.6861 36.2996 43.6954 38.2057Z" fill="#0B3D37"/>
<path d="M39.1124 54.563L19.5189 59.9039H54.9985L39.1124 54.563Z" fill="#052621"/>
<path d="M19.5178 59.904V16.3479H35.4039V59.904H19.5178Z" fill="#FF6300"/>
<path d="M32.0749 39.6637C32.8809 39.6637 33.5342 39.0108 33.5342 38.2055C33.5342 37.4002 32.8809 36.7473 32.0749 36.7473C31.2689 36.7473 30.6155 37.4002 30.6155 38.2055C30.6155 39.0108 31.2689 39.6637 32.0749 39.6637Z" fill="#D8FF7A"/>
<path d="M74.5914 26.8515L73.9694 27.7936L73.0799 29.1418L73.9694 30.4901L74.5914 31.4321V59.9826H69.2462V31.4066H64.0505V59.9826H58.7053V16.4277H74.5914V26.8515ZM69.2462 26.8758V20.9597H64.0505V26.8758H69.2462Z" fill="white"/>
</g>
<defs>
<clipPath id="clip0_449_846">
<rect width="94" height="60" fill="white"/>
</clipPath>
</defs>
</svg>
